<svg width="22" height="18" viewBox="0 0 22 18" fill="none" xmlns="http://www.w3.org/2000/svg">
<path d="M0 5.2188V4.5313C0 3.96175 0.461699 3.50005 1.03125 3.50005H16.5V1.43755C16.5 0.519439 17.6128 0.0607471 18.2605 0.708329L21.698 4.14583C22.1007 4.54858 22.1007 5.20153 21.698 5.60423L18.2605 9.04173C17.6153 9.68678 16.5 9.23449 16.5 8.31255V6.25005H1.03125C0.461699 6.25005 0 5.78835 0 5.2188ZM20.9688 11.7501H5.5V9.68755C5.5 8.77172 4.38874 8.30911 3.73953 8.95833L0.302027 12.3958C-0.100676 12.7986 -0.100676 13.4515 0.302027 13.8542L3.73953 17.2917C4.38526 17.9374 5.5 17.4837 5.5 16.5626V14.5001H20.9688C21.5383 14.5001 22 14.0384 22 13.4688V12.7813C22 12.2118 21.5383 11.7501 20.9688 11.7501Z" fill="#537DA8"/>
</svg>
